#!OML:ASF F:\VICON\USERDATA\INSTALL\rory3\rory3.ASF
:FULLY-SPECIFIED
:DEGREES
1590
root -1.6351 17.8821 0.978481 5.80952 -27.8133 10.3473
lowerback 3.05212 -7.35765 -4.23575
upperback 2.80061 -10.1612 8.7295
thorax 3.64026 -5.48371 11.5197
lowerneck -21.406 16.9673 -4.55019
upperneck 3.6506 24.1882 -5.54422
head 4.51442 11.3923 1.26375
rclavicle 5.56597e-014 -4.77083e-014
rhumerus 6.86851 26.5961 -31.503
rradius 72.9146
rwrist -67.0808
rhand 30.9997 -20.6482
rfingers 7.12502
rthumb 54.6034 -39.0699
lclavicle 5.56597e-014 -4.77083e-014
lhumerus 98.9652 -48.5208 15.5715
lradius 36.8722
lwrist -45.9587
lhand -49.7408 59.5832
lfingers 7.12502
lthumb -22.3403 88.3116
rfemur -30.8963 16.8324 2.50613
rtibia 35.5138
rfoot -9.60254 9.71762
rtoes 10.8078
lfemur -5.95958 15.1215 -23.6808
ltibia 18.3933
lfoot -5.16662 27.2821
ltoes -25.7491
1591
root -1.62394 17.8778 0.970362 5.79089 -27.6985 10.379
lowerback 2.80856 -7.08826 -3.9471
upperback 3.10155 -9.78534 8.27275
thorax 3.86248 -5.27827 10.8144
lowerneck -22.0367 16.8248 -3.90569
upperneck 3.68855 23.8472 -5.43324
head 4.67205 11.2165 1.24824
rclavicle 2.06736e-014 2.54444e-014
rhumerus 5.86654 25.6304 -32.6034
rradius 72.7443
rwrist -67.0355
rhand 29.7513 -20.2826
rfingers 7.12502
rthumb 53.4832 -39.4641
lclavicle 2.06736e-014 2.54444e-014
lhumerus 100.681 -48.3072 13.5751
lradius 37.1021
lwrist -45.7674
lhand -49.6244 59.6664
lfingers 7.12502
lthumb -22.2286 88.4081
rfemur -30.9104 16.639 2.48383
rtibia 35.5625
rfoot -9.62048 9.73766
rtoes 10.5134
lfemur -6.03095 15.15 -23.7755
ltibia 18.4502
lfoot -5.18933 27.2566
ltoes -25.8682
1592
root -1.61355 17.8737 0.965256 5.81204 -27.4903 10.2699
lowerback 2.7274 -7.01018 -3.64624
upperback 3.20936 -9.66762 8.03901
thorax 3.89564 -5.20027 10.3732
lowerneck -22.1652 16.8318 -3.51109
upperneck 3.57912 23.7362 -5.35862
head 4.6869 11.1735 1.21979
rclavicle -1.4074e-013 3.81667e-014
rhumerus 5.32574 25.2266 -33.2937
rradius 72.547
rwrist -66.796
rhand 28.5099 -19.9242
rfingers 7.12502
rthumb 52.3624 -39.8121
lclavicle -1.4074e-013 3.81667e-014
lhumerus 101.196 -48.3815 12.7676
lradius 37.2499
lwrist -45.6889
lhand -49.516 59.9594
lfingers 7.12502
lthumb -22.1245 88.7135
rfemur -30.8441 16.4328 2.62387
rtibia 35.6223
rfoot -9.65288 9.72705
rtoes 10.027
lfemur -6.05521 15.0454 -23.7026
ltibia 18.4695
lfoot -5.19144 27.2486
ltoes -25.9635
1593
root -1.60155 17.8725 0.955512 5.84967 -27.1723 10.241
lowerback 2.92753 -6.98906 -3.76924
upperback 3.07923 -9.63675 8.15224
thorax 3.68252 -5.18276 10.6068
lowerneck -22.1203 16.7915 -3.50927
upperneck 3.55413 23.6958 -5.4957
head 4.6913 11.1451 1.17499
rclavicle -3.65764e-014 3.81667e-014
rhumerus 4.99922 25.1346 -33.2914
rradius 72.5351
rwrist -66.564
rhand 26.9882 -19.8439
rfingers 7.12502
rthumb 50.98 -40.5364
lclavicle -3.65764e-014 3.81667e-014
lhumerus 100.862 -48.7207 13.3364
lradius 37.205
lwrist -45.7213
lhand -49.8281 59.78
lfingers 7.12502
lthumb -22.4241 88.4983
rfemur -30.8226 16.1908 2.66787
rtibia 35.6845
rfoot -9.73482 9.60686
rtoes 9.57721
lfemur -6.15454 14.9167 -23.7154
ltibia 18.4724
lfoot -5.32976 27.1796
ltoes -25.6248
1594
root -1.5894 17.8692 0.941645 5.88728 -26.8876 10.2675
lowerback 3.23893 -6.96765 -4.17302
upperback 2.8518 -9.61576 8.43706
thorax 3.38945 -5.18129 11.2151
lowerneck -21.7689 16.7215 -3.88253
upperneck 3.24164 23.674 -5.63856
head 4.52014 11.1484 1.12734
rclavicle 3.18055e-014 -6.99722e-014
rhumerus 4.82048 25.1939 -32.8757
rradius 72.6214
rwrist -66.4054
rhand 25.0611 -20.0217
rfingers 7.12502
rthumb 49.2173 -41.646
lclavicle 3.18055e-014 -6.99722e-014
lhumerus 99.9627 -49.2131 14.7297
lradius 37.1201
lwrist -45.8227
lhand -49.9344 58.5527
lfingers 7.12502
lthumb -22.5261 87.2587
rfemur -30.8683 16.0376 2.61953
rtibia 35.7429
rfoot -9.83755 9.44935
rtoes 9.24228
lfemur -6.32079 14.8371 -23.7877
ltibia 18.4905
lfoot -5.39998 27.1208
ltoes -25.5868
1595
root -1.57799 17.8644 0.927843 5.89006 -26.7085 10.2038
lowerback 3.33089 -6.95923 -4.27608
upperback 2.8953 -9.61145 8.47422
thorax 3.40918 -5.18747 11.3264
lowerneck -21.6866 16.7891 -3.87427
upperneck 2.82894 23.7231 -5.70377
head 4.38472 11.1928 1.08188
rclavicle 7.79236e-014 -9.54166e-015
rhumerus 4.79834 25.0232 -32.9748
rradius 72.5672
rwrist -65.8256
rhand 22.7404 -20.1522
rfingers 7.12502
rthumb 47.0789 -42.7835
lclavicle 7.79236e-014 -9.54166e-015
lhumerus 99.2292 -49.4476 15.5497
lradius 37.0843
lwrist -45.8527
lhand -49.7205 57.4445
lfingers 7.12502
lthumb -22.3208 86.1752
rfemur -30.8507 15.9676 2.66494
rtibia 35.7583
rfoot -9.85435 9.37507
rtoes 9.1952
lfemur -6.45488 14.6719 -23.7565
ltibia 18.5913
lfoot -5.5803 27.2711
ltoes -25.1626
1596
root -1.56645 17.8588 0.915941 5.8305 -26.5062 10.0989
lowerback 2.86586 -7.00182 -3.57137
upperback 3.41283 -9.65257 7.82249
thorax 3.97527 -5.18943 10.099
lowerneck -22.0591 16.892 -3.08163
upperneck 2.30041 23.5996 -5.60115
head 4.33651 11.1603 1.0112
rclavicle 1.82882e-014 -2.54444e-014
rhumerus 4.56512 24.0728 -34.4832
rradius 72.332
rwrist -64.5329
rhand 20.4883 -20.1507
rfingers 7.12502
rthumb 44.9896 -43.6543
lclavicle 1.82882e-014 -2.54444e-014
lhumerus 99.723 -49.2193 14.1417
lradius 37.1208
lwrist -45.1639
lhand -49.4661 57.0703
lfingers 7.12502
lthumb -22.0766 85.8301
rfemur -30.7086 15.9273 2.78372
rtibia 35.7382
rfoot -9.84061 9.26665
rtoes 8.27956
lfemur -6.52327 14.5956 -23.669
ltibia 18.7654
lfoot -5.55388 27.3383
ltoes -25.2299
1597
root -1.55446 17.857 0.904994 5.90307 -26.3148 9.57686
lowerback 3.14873 -6.87237 -3.32946
upperback 3.48214 -9.48441 8.00674
thorax 3.84897 -5.10359 10.2096
lowerneck -22.2515 16.8005 -3.06557
upperneck 2.21879 23.4839 -5.72412
head 4.35526 11.0916 0.976087
rclavicle 7.95139e-016 -2.8625e-014
rhumerus 4.31676 23.5823 -34.6234
rradius 72.2907
rwrist -62.8353
rhand 18.4679 -20.1583
rfingers 7.12502
rthumb 43.1053 -44.3669
lclavicle 7.95139e-016 -2.8625e-014
lhumerus 99.6796 -49.5271 14.5755
lradius 36.9396
lwrist -43.4313
lhand -49.1277 56.3418
lfingers 7.12502
lthumb -21.7516 85.1397
rfemur -30.5128 15.9791 3.33666
rtibia 35.6947
rfoot -9.83311 9.08078
rtoes 7.337
lfemur -6.52366 14.6266 -23.1482
ltibia 18.9424
lfoot -5.70832 27.3203
ltoes -25.2213
1598
root -1.54448 17.8542 0.893273 5.91683 -26.2135 9.15445
lowerback 3.73487 -6.73914 -3.44301
upperback 3.29297 -9.30883 8.41194
thorax 3.3803 -5.01765 10.8254
lowerneck -22.1304 16.6897 -3.52729
upperneck 2.19797 23.4461 -5.68058
head 4.27746 11.0786 1.02115
rclavicle -1.08934e-013 7.63333e-014
rhumerus 4.07994 23.6255 -34.2686
rradius 72.3906
rwrist -60.7802
rhand 16.511 -19.9901
rfingers 7.12502
rthumb 41.272 -44.8194
lclavicle -1.08934e-013 7.63333e-014
lhumerus 98.5606 -50.2156 16.4192
lradius 36.9382
lwrist -41.7054
lhand -48.835 55.3534
lfingers 7.12502
lthumb -21.4706 84.1835
rfemur -30.3601 16.0547 3.7924
rtibia 35.6765
rfoot -9.88991 8.93923
rtoes 7.03157
lfemur -6.44009 14.7429 -22.7205
ltibia 19.0207
lfoot -5.85495 27.2522
ltoes -25.0888
1599
root -1.53053 17.8515 0.88023 5.81987 -26.0238 9.25244
lowerback 3.48158 -6.77874 -3.24737
upperback 3.52381 -9.35713 8.05868
thorax 3.67605 -5.03571 10.2699
lowerneck -22.0478 16.6922 -3.37809
upperneck 1.6446 23.3454 -5.60755
head 4.09355 11.0665 0.97499
rclavicle 7.63333e-014 -5.40694e-014
rhumerus 3.87704 23.084 -35.0885
rradius 72.3926
rwrist -58.2257
rhand 14.2936 -19.4397
rfingers 7.12502
rthumb 39.1863 -44.9061
lclavicle 7.63333e-014 -5.40694e-014
lhumerus 97.5831 -50.3107 16.78
lradius 37.5797
lwrist -41.592
lhand -47.791 54.9483
lfingers 7.12502
lthumb -20.4676 83.8895
rfemur -30.2985 15.9183 3.69361
rtibia 35.6829
rfoot -9.91032 8.89123
rtoes 6.09206
lfemur -6.42061 14.7209 -22.8472
ltibia 19.0032
lfoot -6.07065 27.1514
ltoes -24.6175
1600
root -1.5191 17.8491 0.87044 5.80035 -25.7525 9.59725
lowerback 3.11152 -6.86459 -3.35261
upperback 3.63025 -9.47115 7.77693
thorax 3.98382 -5.09597 9.95592
lowerneck -22.0044 16.6782 -3.49043
upperneck 1.17376 23.2904 -5.43922
head 3.90226 11.0764 0.993217
rclavicle -4.37326e-014 1.59028e-014
rhumerus 3.85759 22.6201 -35.7016
rradius 72.3141
rwrist -55.4359
rhand 12.0598 -18.7414
rfingers 7.12502
rthumb 37.0773 -44.7859
lclavicle -4.37326e-014 1.59028e-014
lhumerus 96.4819 -50.3517 17.0567
lradius 38.3369
lwrist -41.4296
lhand -47.3787 53.7368
lfingers 7.12502
lthumb -20.0713 82.72
rfemur -30.3914 15.5924 3.30126
rtibia 35.7252
rfoot -9.90441 8.9246
rtoes 5.41687
lfemur -6.5573 14.7058 -23.27
ltibia 18.9146
lfoot -6.19896 26.9602
ltoes -24.3218
1601
root -1.50814 17.849 0.860731 5.8295 -25.545 9.75257
lowerback 3.63612 -6.83648 -4.27622
upperback 3.1808 -9.45673 8.39676
thorax 3.49158 -5.12095 11.2731
lowerneck -21.6008 16.5793 -4.43379
upperneck 0.928835 23.3735 -5.581
head 3.68776 11.1303 1.01544
rclavicle 1.00983e-013 -6.04305e-014
rhumerus 4.02841 22.9528 -34.7096
rradius 72.5204
rwrist -52.8084
rhand 9.86083 -18.4147
rfingers 7.12502
rthumb 34.9943 -44.9721
lclavicle 1.00983e-013 -6.04305e-014
lhumerus 94.1599 -50.9493 19.9891
lradius 38.4316
lwrist -41.2284
lhand -47.7738 51.9254
lfingers 7.12502
lthumb -20.4511 80.8683
rfemur -30.4721 15.3731 3.09561
rtibia 35.7767
rfoot -9.92907 8.91734
rtoes 5.56177
lfemur -6.66775 14.6119 -23.5064
ltibia 18.7941
lfoot -6.07171 26.9331
ltoes -24.4822
1602
root -1.49457 17.848 0.846325 5.92451 -25.2848 9.66534
lowerback 3.9472 -6.78292 -4.49476
upperback 2.96678 -9.38751 8.62251
thorax 3.15518 -5.08243 11.7145
lowerneck -21.5751 16.5258 -4.72373
upperneck 0.86164 23.3691 -5.61385
head 3.63674 11.1292 1.03029
rclavicle -1.11319e-013 6.36111e-014
rhumerus 3.76699 22.8013 -34.5902
rradius 72.8492
rwrist -50.1095
rhand 7.72813 -18.2646
rfingers 7.12502
rthumb 32.9685 -45.2714
lclavicle -1.11319e-013 6.36111e-014
lhumerus 92.4492 -51.4001 21.9586
lradius 38.4829
lwrist -42.0258
lhand -46.9652 50.1641
lfingers 7.12502
lthumb -19.6738 79.1885
rfemur -30.531 15.2317 3.13714
rtibia 35.8297
rfoot -9.94812 8.82613
rtoes 5.90995
lfemur -6.76739 14.4443 -23.4833
ltibia 18.6432
lfoot -5.89298 26.9611
ltoes -24.5277
1603
root -1.48013 17.8463 0.832184 5.96887 -25.0211 9.49266
lowerback 4.18447 -6.66903 -4.44938
upperback 2.89567 -9.22829 8.67135
thorax 2.90957 -4.98907 11.7891
lowerneck -21.7682 16.4161 -4.80528
upperneck 0.879329 23.2429 -5.51521
head 3.64869 11.0662 1.06962
rclavicle -7.79236e-014 8.26944e-014
rhumerus 3.30201 22.402 -34.8606
rradius 73.219
rwrist -47.2819
rhand 5.25342 -18.0001
rfingers 7.12502
rthumb 30.6117 -45.4748
lclavicle -7.79236e-014 8.26944e-014
lhumerus 91.2097 -51.6679 23.0524
lradius 38.8779
lwrist -42.5354
lhand -45.6586 48.2909
lfingers 7.12502
lthumb -18.4173 77.439
rfemur -30.4812 15.0242 3.32289
rtibia 35.8585
rfoot -9.96345 8.78166
rtoes 5.56118
lfemur -6.80435 14.3218 -23.3339
ltibia 18.5694
lfoot -5.81523 26.9073
ltoes -24.43
